<svg xmlns="http://www.w3.org/2000/svg" viewBox="0 0 297 226.9" fill="currentColor"><path d="M45.4 0C42.6 0 40 1.1 38 3.1s-3.1 4.7-3.1 7.5V170c0 5.8 4.8 10.6 10.6 10.6 24.7.1 66.2 5.2 94.8 35.1V49c0-2-.5-3.8-1.5-5.4C115.3 5.8 70.2.1 45.4 0zm216.8 170V10.6c0-2.9-1.1-5.5-3.1-7.5S254.5 0 251.7 0c-24.8.1-69.9 5.8-93.4 43.6-1 1.5-1.5 3.4-1.5 5.4v166.8c28.6-29.9 70-35.1 94.8-35.1 5.8-.1 10.6-4.9 10.6-10.7z"/><path d="M286.4 36.8h-7.7V170c0 14.9-12.2 27.1-27.1 27.1-21 .1-55.6 4.2-80.1 27.3 42.4-10.4 87.1-3.6 112.5 2.2 3.2.7 6.5 0 9-2.1 2.5-2 4-5.1 4-8.3V47.4c0-5.9-4.8-10.6-10.6-10.6zM18.3 170V36.8h-7.7C4.8 36.8 0 41.5 0 47.4v168.9c0 3.2 1.5 6.3 4 8.3 2.5 2 5.8 2.8 9 2.1 25.5-5.8 70.1-12.5 112.5-2.2-24.5-23.2-59.1-27.3-80.1-27.3-14.9-.1-27.1-12.3-27.1-27.2z"/></svg>